<?xml version="1.0" encoding="UTF-8"?>
<svg width="90px" height="90px" viewBox="0 0 90 90" version="1.1" xmlns="http://www.w3.org/2000/svg" xmlns:xlink="http://www.w3.org/1999/xlink">
    <title>icon_plan</title>
    <g id="页面-1" stroke="none" stroke-width="1" fill="none" fill-rule="evenodd">
        <g id="作者福利" transform="translate(-915.000000, -946.000000)">
            <g id="为什么选择" transform="translate(0.000000, 735.000000)">
                <g id="编组-8备份" transform="translate(792.000000, 181.000000)">
                    <g id="icon_plan" transform="translate(123.000000, 30.000000)">
                        <circle id="椭圆形" fill="#F3F4F5" cx="45" cy="45" r="45"></circle>
                        <g id="编组" transform="translate(29.000000, 27.000000)" fill-rule="nonzero">
                            <path d="M20.6312057,15.0508274 C20.6313656,16.0952245 21.4780615,16.9417909 22.5224586,16.9417909 C23.5668557,16.9417909 24.4135517,16.0952245 24.4137116,15.0508274 C24.4137116,12.5428701 23.4174294,10.1376321 21.6440358,8.36423847 C19.8706421,6.59084482 17.4654042,5.59456263 14.9574468,5.59456263 C13.9129366,5.59456263 13.0661938,6.44130543 13.0661938,7.4858156 C13.0661938,8.53032578 13.9129366,9.37706857 14.9574468,9.37706857 C18.0909773,9.37706857 20.6312057,11.9172969 20.6312057,15.0508274 Z" id="路径" fill="#FF74A3"></path>
                            <path d="M16,0 C13.3700726,0 10.8883446,0.634517078 8.69955348,1.75881383 L8.17994209,2.03797472 C5.61074813,3.48005693 3.48005693,5.61074813 2.03797472,8.17994209 L1.75881383,8.69955348 C0.634517078,10.8883446 0,13.3700726 0,16 L0.0041924105,16.3684388 C0.124201106,21.6385151 2.81319057,26.4295946 7.10742976,29.3031259 L7.369,29.474 L7.47051506,29.7330858 L8.01489562,31.2520026 L8.13976617,31.5812598 L8.25659344,31.867079 L8.37326655,32.1274742 L8.43401064,32.2537673 C8.9676093,33.3384935 9.54307495,33.998697 10.7980961,34.0068841 L15.8434418,34.0191663 L21.1529858,34.021133 C22.3679126,34.021133 22.9370314,33.3901069 23.4386993,32.3900753 C23.560038,32.1481973 23.6691,31.8911569 23.7872873,31.5748652 L23.934862,31.1640528 L24.3117276,30.0503978 L24.4593116,29.6423966 C24.4700459,29.6146351 24.4805648,29.5879556 24.491,29.562 L24.7080304,29.4248621 C29.2069879,26.5034275 32,21.4932898 32,16 C32,10.0037656 28.7015264,4.77793093 23.8200579,2.03797472 L23.3004465,1.75881383 C21.1116554,0.634517078 18.6299274,0 16,0 Z M16,4 C22.627417,4 28,9.372583 28,16 C28,20.3049435 25.715988,24.2108738 22.071057,26.3535539 C21.4380189,26.7256866 21.1503124,27.1911533 20.8327055,27.9427228 L20.7407653,28.1681624 L20.649355,28.4095655 L20.4935399,28.8530052 L20.1391756,29.9004468 L20.095,30.021 L11.822,30.011 L11.6788834,29.6220224 L11.4141739,28.8707598 L11.2213272,28.3363396 L11.1132946,28.0529906 L11.01575,27.8152561 C11.0000839,27.7788287 10.9846427,27.7438473 10.9693204,27.7100844 L10.8779657,27.5203122 L10.784376,27.3488751 L10.6834622,27.1848614 L10.5701351,27.0173593 C10.3632791,26.7223668 10.1219121,26.4717861 9.79028725,26.2707837 C6.22299765,24.1085998 4,20.2475254 4,16 C4,9.372583 9.372583,4 16,4 Z" id="椭圆形" fill="#FF4986"></path>
                            <path d="M12.0067484,36.237582 C12.9240452,35.722597 14.0735296,36.0086816 14.6480308,36.8691107 L14.7297927,37.0024543 C15.0991355,37.6603316 15.5708978,37.9815403 15.9873052,37.9815403 C16.3683469,37.9815403 16.7957209,37.7126152 17.1486931,37.1626228 L17.2430228,37.0056472 C17.7848836,36.0431189 19.0044319,35.7021005 19.9669601,36.2439613 C20.9294884,36.7858221 21.2705068,38.0053704 20.728646,38.9678986 C19.6949804,40.8040388 17.9627366,41.9815403 15.9873052,41.9815403 C14.0091252,41.9815403 12.2749903,40.8008203 11.2418761,38.9606263 C10.7011418,37.9974647 11.0435868,36.7783162 12.0067484,36.237582 Z" id="路径" fill="#FF74A3"></path>
                        </g>
                    </g>
                </g>
            </g>
        </g>
    </g>
</svg>