<?xml version="1.0" encoding="UTF-8"?>
<svg width="90px" height="90px" viewBox="0 0 90 90" version="1.1" xmlns="http://www.w3.org/2000/svg" xmlns:xlink="http://www.w3.org/1999/xlink">
    <title>icon_tixi</title>
    <g id="页面-1" stroke="none" stroke-width="1" fill="none" fill-rule="evenodd">
        <g id="作者福利" transform="translate(-1275.000000, -946.000000)">
            <g id="为什么选择" transform="translate(0.000000, 735.000000)">
                <g id="编组-8备份-2" transform="translate(1152.000000, 181.000000)">
                    <g id="icon_tixi" transform="translate(123.000000, 30.000000)">
                        <circle id="椭圆形" fill="#F3F4F5" cx="45" cy="45" r="45"></circle>
                        <g id="编组" transform="translate(25.000000, 26.000000)">
                            <path d="M20,4 C10.6111593,4 3,11.6111593 3,21 C3,30.3888407 10.6111593,38 20,38 C29.3888407,38 37,30.3888407 37,21 C37,11.6111593 29.3888407,4 20,4 Z M20,8 C27.1797017,8 33,13.8202983 33,21 C33,28.1797017 27.1797017,34 20,34 C12.8202983,34 7,28.1797017 7,21 C7,13.8202983 12.8202983,8 20,8 Z" id="椭圆形" fill="#FF4986" fill-rule="nonzero"></path>
                            <circle id="椭圆形" fill="#FF74A3" cx="20" cy="6" r="6"></circle>
                            <circle id="椭圆形备份-4" fill="#FF74A3" cx="34" cy="30" r="6"></circle>
                            <circle id="椭圆形备份-5" fill="#FF74A3" cx="6" cy="30" r="6"></circle>
                        </g>
                    </g>
                </g>
            </g>
        </g>
    </g>
</svg>