<?xml version="1.0" encoding="UTF-8"?>
<svg width="90px" height="90px" viewBox="0 0 90 90" version="1.1" xmlns="http://www.w3.org/2000/svg" xmlns:xlink="http://www.w3.org/1999/xlink">
    <title>icon_tixi备份</title>
    <g id="作者权益" stroke="none" stroke-width="1" fill="none" fill-rule="evenodd">
        <g id="作者福利-1" transform="translate(-918.000000, -518.000000)">
            <g id="编组-8备份-5" transform="translate(812.000000, 494.000000)">
                <g id="icon_tixi备份" transform="translate(106.000000, 24.000000)">
                    <circle id="椭圆形" fill="#FFFFFF" cx="45" cy="45" r="45"></circle>
                    <g id="编组" transform="translate(28.000000, 28.000000)">
                        <path d="M17,0 L32.708,5.166 C33.4796919,5.41958861 34,6.13209527 34,6.93459088 L34,20.5 C34,28.0477273 28.3333333,34.8816818 17,41 C5.66666667,34.8816818 0,28.0477273 0,20.5 L0,6.93272728 C0.000617056661,6.13091768 0.520967559,5.41937168 1.292,5.166 L17,0 Z M17,3.92854544 L3.77777776,8.27827272 L3.77777776,20.5 L3.791,21.0535 C3.9288889,23.8116818 5.0981111,26.4226364 7.1721111,28.9255 C9.44444443,31.6631818 12.7367778,34.2405909 17,36.7155 C21.2651111,34.2405909 24.5555556,31.6613182 26.826,28.9255 C29.0397778,26.2586364 30.2222222,23.4650455 30.2222222,20.5 L30.2222222,8.27827272 L17,3.92854544 Z" id="形状" fill="#FF4986" fill-rule="nonzero"></path>
                        <rect id="矩形" fill="#FF74A3" x="10" y="17" width="14" height="3" rx="1.5"></rect>
                        <rect id="矩形备份-11" fill="#FF74A3" transform="translate(17.000000, 18.500000) rotate(-270.000000) translate(-17.000000, -18.500000) " x="10" y="17" width="14" height="3" rx="1.5"></rect>
                    </g>
                </g>
            </g>
        </g>
    </g>
</svg>